<?xml version="1.0" standalone="no"?>
<!DOCTYPE svg PUBLIC "-//W3C//DTD SVG 20010904//EN"
 "http://www.w3.org/TR/2001/REC-SVG-20010904/DTD/svg10.dtd">
<svg version="1.0" xmlns="http://www.w3.org/2000/svg"
 width="1149.000000pt" height="1280.000000pt" viewBox="0 0 1149.000000 1280.000000"
 preserveAspectRatio="xMidYMid meet">
<metadata>
Created by potrace 1.15, written by Peter Selinger 2001-2017
</metadata>
<g transform="translate(0.000000,1280.000000) scale(0.100000,-0.100000)"
fill="#e91e63" stroke="none">
<path d="M1835 12354 c-162 -36 -388 -142 -675 -317 -135 -83 -205 -131 -358
-245 -156 -117 -201 -176 -207 -271 -4 -57 17 -103 80 -173 88 -98 154 -273
214 -573 23 -114 44 -281 63 -505 20 -233 16 -1002 -7 -1335 -3 -38 -10 -167
-15 -285 -6 -118 -12 -255 -15 -305 -3 -49 -9 -184 -15 -300 -11 -212 -24
-464 -34 -630 -20 -324 -28 -463 -37 -635 -5 -107 -14 -265 -19 -350 -5 -85
-14 -229 -19 -320 -6 -91 -15 -244 -21 -340 -6 -96 -12 -204 -15 -240 -2 -36
-6 -117 -10 -180 -3 -63 -10 -178 -15 -255 -5 -77 -14 -219 -20 -315 -6 -96
-15 -242 -20 -325 -6 -82 -15 -231 -20 -330 -10 -174 -19 -322 -40 -645 -5
-85 -14 -227 -20 -315 -5 -88 -12 -196 -15 -240 -3 -44 -9 -159 -15 -255 -11
-180 -23 -369 -40 -640 -28 -449 -32 -554 -27 -760 5 -229 14 -295 56 -427 11
-34 25 -73 32 -85 22 -43 82 -109 122 -136 36 -24 49 -27 121 -26 97 1 162 23
291 96 264 149 667 455 774 587 79 98 94 132 89 205 -3 50 -10 70 -38 110 -63
87 -70 100 -91 166 -35 112 -49 210 -55 370 -6 152 7 643 26 970 36 635 50
836 95 1385 47 577 70 697 181 934 114 243 244 395 415 483 60 31 70 33 165
33 98 0 103 -1 185 -42 119 -59 204 -126 362 -287 239 -243 468 -513 912
-1077 55 -70 133 -169 173 -220 39 -52 118 -152 173 -224 56 -71 134 -172 173
-223 39 -51 93 -121 119 -155 27 -34 74 -96 105 -137 54 -72 144 -188 405
-523 64 -84 133 -172 152 -197 19 -25 94 -122 167 -215 73 -94 147 -188 163
-209 89 -115 326 -385 488 -555 340 -360 731 -696 1042 -895 58 -37 86 -55
170 -108 137 -86 393 -207 555 -263 253 -88 424 -119 655 -119 168 0 233 7
433 45 271 53 692 186 929 294 29 14 56 25 59 25 12 0 323 156 404 203 204
118 389 262 495 386 149 174 199 407 108 493 -36 33 -93 49 -135 38 -17 -5
-90 -38 -162 -74 -136 -67 -317 -141 -445 -182 -41 -13 -75 -24 -77 -24 -2 0
15 37 36 82 41 85 91 259 110 382 34 216 -8 611 -93 876 -133 412 -403 747
-686 850 -236 86 -468 45 -673 -118 -196 -158 -353 -424 -434 -738 -44 -171
-64 -321 -69 -524 -6 -236 14 -378 81 -579 14 -40 23 -75 20 -78 -10 -11 -280
161 -441 282 -403 301 -1139 1013 -1725 1670 -167 187 -211 237 -244 276 -16
19 -59 67 -95 108 -36 41 -77 89 -91 106 -29 37 -190 231 -236 284 -29 33
-284 351 -346 431 -15 19 -55 71 -90 115 -70 90 -449 595 -547 731 -105 144
-311 421 -515 692 -250 332 -240 316 -232 348 10 38 149 173 300 289 71 55
145 114 166 130 36 29 352 278 430 340 124 98 883 705 1040 832 170 137 318
258 444 361 38 32 86 71 106 87 75 60 576 480 610 511 19 18 86 77 149 131
317 273 362 314 656 594 310 297 542 537 786 814 84 96 268 339 340 450 160
246 225 437 207 609 -10 98 -32 149 -84 195 -116 102 -317 76 -734 -93 -158
-64 -666 -320 -726 -365 -74 -55 -93 -98 -104 -233 -12 -135 -41 -232 -112
-371 -89 -174 -276 -440 -475 -676 -154 -182 -489 -514 -803 -797 -274 -247
-369 -331 -455 -404 -49 -41 -107 -91 -129 -110 -93 -81 -416 -350 -481 -400
-18 -14 -77 -61 -130 -105 -54 -44 -118 -96 -143 -115 -25 -19 -60 -46 -77
-60 -18 -14 -102 -79 -186 -145 -153 -119 -609 -461 -750 -563 -464 -333 -591
-423 -944 -667 -400 -276 -601 -425 -764 -567 -30 -27 -59 -48 -64 -48 -5 0
-6 15 -3 33 3 18 11 89 16 158 36 443 48 619 60 814 5 94 14 235 20 315 5 80
14 228 20 330 6 102 15 259 20 350 6 91 15 271 21 400 5 129 14 327 19 440 5
113 12 275 15 360 3 85 10 261 15 390 26 622 -4 1304 -72 1675 -21 120 -71
292 -103 362 -37 79 -110 165 -165 193 -38 19 -103 31 -135 24z"/>
</g>
</svg>
